<?xml version="1.0" standalone="no"?><!DOCTYPE svg PUBLIC "-//W3C//DTD SVG 1.1//EN" "http://www.w3.org/Graphics/SVG/1.1/DTD/svg11.dtd"><svg t="1570432708068" class="icon" viewBox="0 0 1024 1024" version="1.1" xmlns="http://www.w3.org/2000/svg" p-id="2483" xmlns:xlink="http://www.w3.org/1999/xlink" width="200" height="200"><defs><style type="text/css"></style></defs><path d="M512 0a512 512 0 1 0 512 512A512 512 0 0 0 512 0z m222.208 671.1296c-2.4576 1.6384-17.8176 2.048-35.0208-38.0928H696.32a192.9216 192.9216 0 0 1-48.5376 73.728 102.4 102.4 0 0 1 30.9248 11.4688c17.2032 10.24 31.744 27.8528 12.6976 46.8992-27.0336 27.4432-130.6624 37.888-177.152-10.0352h-6.144c-46.4896 47.7184-150.1184 37.4784-177.152 10.0352-18.8416-19.2512-4.5056-36.6592 12.6976-46.8992a102.4 102.4 0 0 1 30.9248-11.4688A192.9216 192.9216 0 0 1 327.68 632.832h-2.2528c-17.2032 40.96-32.5632 39.7312-35.0208 38.0928-11.6736-7.9872-20.48-52.224-11.4688-89.2928a328.9088 328.9088 0 0 1 42.3936-90.112 90.7264 90.7264 0 0 0 12.6976-58.368 244.1216 244.1216 0 0 1 4.5056-53.4528 176.5376 176.5376 0 0 1 346.9312 0 244.1216 244.1216 0 0 1 4.5056 53.4528A89.9072 89.9072 0 0 0 702.464 491.52a326.4512 326.4512 0 0 1 43.2128 90.7264c9.216 37.0688 0 81.92-11.4688 89.2928z" fill="#008CFF" p-id="2484"></path></svg>